<svg width="208" height="36" viewBox="0 0 208 36" fill="none" xmlns="http://www.w3.org/2000/svg">
<path d="M7.23367 7.18182L6.81818 22.4588H2.91903L2.4929 7.18182H7.23367ZM4.86861 29.277C4.16548 29.277 3.56179 29.0284 3.05753 28.5312C2.55327 28.027 2.30469 27.4233 2.31179 26.7202C2.30469 26.0241 2.55327 25.4276 3.05753 24.9304C3.56179 24.4332 4.16548 24.1847 4.86861 24.1847C5.54332 24.1847 6.13636 24.4332 6.64773 24.9304C7.15909 25.4276 7.41832 26.0241 7.42543 26.7202C7.41832 27.1889 7.29403 27.6186 7.05256 28.0092C6.81818 28.3928 6.50923 28.7017 6.12571 28.9361C5.74219 29.1634 5.32315 29.277 4.86861 29.277ZM29.8722 7.18182V29H25.8878L16.3956 15.2678H16.2358V29H11.6229V7.18182H15.6712L25.0888 20.9034H25.2805V7.18182H29.8722ZM41.0556 29.3196C39.3723 29.3196 37.9235 28.9787 36.709 28.2969C35.5016 27.608 34.5712 26.6349 33.9178 25.3778C33.2644 24.1136 32.9377 22.6186 32.9377 20.8928C32.9377 19.2095 33.2644 17.7322 33.9178 16.4609C34.5712 15.1896 35.4909 14.1989 36.677 13.4886C37.8702 12.7784 39.2694 12.4233 40.8745 12.4233C41.954 12.4233 42.959 12.5973 43.8894 12.9453C44.8269 13.2862 45.6436 13.8011 46.3397 14.4901C47.0428 15.179 47.5897 16.0455 47.9803 17.0895C48.3709 18.1264 48.5662 19.3409 48.5662 20.733V21.9794H34.7488V19.1669H44.2942C44.2942 18.5135 44.1522 17.9347 43.8681 17.4304C43.584 16.9261 43.1898 16.532 42.6855 16.2479C42.1884 15.9567 41.6096 15.8111 40.949 15.8111C40.2601 15.8111 39.6493 15.9709 39.1167 16.2905C38.5911 16.603 38.1792 17.0256 37.8809 17.5582C37.5826 18.0838 37.4299 18.6697 37.4228 19.3161V21.9901C37.4228 22.7997 37.5719 23.4993 37.8702 24.0888C38.1756 24.6783 38.6053 25.1328 39.1593 25.4524C39.7132 25.772 40.3702 25.9318 41.1301 25.9318C41.6344 25.9318 42.0961 25.8608 42.5151 25.7188C42.9341 25.5767 43.2928 25.3636 43.5911 25.0795C43.8894 24.7955 44.1167 24.4474 44.2729 24.0355L48.4703 24.3125C48.2573 25.321 47.8205 26.2017 47.16 26.9545C46.5066 27.7003 45.6614 28.2827 44.6245 28.7017C43.5946 29.1136 42.405 29.3196 41.0556 29.3196ZM62.0215 22.0327V12.6364H66.5598V29H62.2026V26.0277H62.0321C61.6628 26.9865 61.0485 27.7571 60.1891 28.3395C59.3368 28.9219 58.2963 29.2131 57.0676 29.2131C55.9739 29.2131 55.0115 28.9645 54.1806 28.4673C53.3496 27.9702 52.6998 27.2635 52.231 26.3473C51.7694 25.4311 51.535 24.3338 51.5279 23.0554V12.6364H56.0662V22.2457C56.0733 23.2116 56.3326 23.9751 56.8439 24.5362C57.3553 25.0973 58.0407 25.3778 58.9 25.3778C59.4469 25.3778 59.9583 25.2536 60.4341 25.005C60.91 24.7493 61.2935 24.3729 61.5847 23.8757C61.883 23.3786 62.0286 22.7642 62.0215 22.0327Z" fill="#D9D9D9"/>
<path d="M70.9815 29V12.6364H74.7209V15.3636H74.8913C75.1896 14.419 75.701 13.6911 76.4254 13.1797C77.157 12.6612 77.9915 12.402 78.929 12.402C79.142 12.402 79.38 12.4126 79.6428 12.4339C79.9126 12.4482 80.1364 12.473 80.3139 12.5085V16.0561C80.1506 15.9993 79.8913 15.9496 79.5362 15.907C79.1882 15.8572 78.8509 15.8324 78.5241 15.8324C77.821 15.8324 77.1889 15.9851 76.6278 16.2905C76.0739 16.5888 75.6371 17.0043 75.3175 17.5369C74.9979 18.0696 74.8381 18.6839 74.8381 19.38V29H70.9815ZM89.34 29.3196C87.742 29.3196 86.3571 28.968 85.1852 28.2649C84.0133 27.5618 83.1042 26.5781 82.4579 25.3139C81.8187 24.0497 81.4991 22.5724 81.4991 20.8821C81.4991 19.1918 81.8187 17.7109 82.4579 16.4396C83.1042 15.1683 84.0133 14.1811 85.1852 13.478C86.3571 12.7749 87.742 12.4233 89.34 12.4233C90.938 12.4233 92.323 12.7749 93.4949 13.478C94.6667 14.1811 95.5723 15.1683 96.2115 16.4396C96.8578 17.7109 97.1809 19.1918 97.1809 20.8821C97.1809 22.5724 96.8578 24.0497 96.2115 25.3139C95.5723 26.5781 94.6667 27.5618 93.4949 28.2649C92.323 28.968 90.938 29.3196 89.34 29.3196ZM89.3613 26.2301C90.2278 26.2301 90.9522 25.9922 91.5346 25.5163C92.117 25.0334 92.5502 24.3871 92.8343 23.5774C93.1255 22.7678 93.2711 21.8658 93.2711 20.8714C93.2711 19.87 93.1255 18.9645 92.8343 18.1548C92.5502 17.3381 92.117 16.6882 91.5346 16.2053C90.9522 15.7223 90.2278 15.4808 89.3613 15.4808C88.4735 15.4808 87.7349 15.7223 87.1454 16.2053C86.563 16.6882 86.1262 17.3381 85.835 18.1548C85.551 18.9645 85.4089 19.87 85.4089 20.8714C85.4089 21.8658 85.551 22.7678 85.835 23.5774C86.1262 24.3871 86.563 25.0334 87.1454 25.5163C87.7349 25.9922 88.4735 26.2301 89.3613 26.2301ZM100.454 29V12.6364H104.14V15.4169H104.332C104.673 14.4794 105.238 13.7479 106.026 13.2223C106.814 12.6896 107.755 12.4233 108.849 12.4233C109.957 12.4233 110.891 12.6932 111.651 13.233C112.418 13.7656 112.958 14.4936 113.27 15.4169H113.441C113.803 14.5078 114.414 13.7834 115.273 13.2436C116.14 12.6967 117.166 12.4233 118.352 12.4233C119.858 12.4233 121.086 12.8991 122.038 13.8509C122.99 14.8026 123.466 16.1911 123.466 18.0163V29H119.598V18.6129C119.598 17.5973 119.328 16.8551 118.789 16.3864C118.249 15.9105 117.588 15.6726 116.807 15.6726C115.877 15.6726 115.149 15.9638 114.623 16.5462C114.105 17.1214 113.846 17.8707 113.846 18.794V29H110.064V18.4531C110.064 17.608 109.808 16.9332 109.297 16.429C108.792 15.9247 108.132 15.6726 107.315 15.6726C106.761 15.6726 106.257 15.8146 105.802 16.0987C105.348 16.3757 104.985 16.7699 104.716 17.2812C104.446 17.7855 104.311 18.375 104.311 19.0497V29H100.454ZM132.087 29.3303C131.05 29.3303 130.116 29.1456 129.285 28.7763C128.461 28.3999 127.808 27.8459 127.325 27.1143C126.849 26.3828 126.611 25.4808 126.611 24.4084C126.611 23.4851 126.781 22.7216 127.122 22.1179C127.463 21.5142 127.928 21.0312 128.518 20.669C129.107 20.3068 129.771 20.0334 130.51 19.8487C131.256 19.657 132.026 19.5185 132.822 19.4332C133.781 19.3338 134.558 19.245 135.155 19.1669C135.752 19.0817 136.185 18.9538 136.455 18.7834C136.732 18.6058 136.87 18.3324 136.87 17.9631V17.8991C136.87 17.0966 136.632 16.4751 136.156 16.0348C135.681 15.5945 134.995 15.3743 134.1 15.3743C133.156 15.3743 132.406 15.5803 131.852 15.9922C131.306 16.4041 130.936 16.8906 130.744 17.4517L127.144 16.9403C127.428 15.946 127.896 15.1151 128.55 14.4474C129.203 13.7727 130.002 13.2685 130.947 12.9347C131.892 12.5938 132.936 12.4233 134.079 12.4233C134.867 12.4233 135.652 12.5156 136.433 12.7003C137.215 12.8849 137.928 13.1903 138.575 13.6165C139.221 14.0355 139.74 14.6072 140.13 15.3317C140.528 16.0561 140.727 16.9616 140.727 18.0483V29H137.019V26.7521H136.892C136.657 27.2067 136.327 27.6328 135.901 28.0305C135.482 28.4212 134.953 28.7372 134.313 28.9787C133.681 29.2131 132.939 29.3303 132.087 29.3303ZM133.088 26.4964C133.862 26.4964 134.534 26.3437 135.102 26.0384C135.67 25.7259 136.107 25.3139 136.412 24.8026C136.725 24.2912 136.881 23.7337 136.881 23.13V21.2017C136.76 21.3011 136.554 21.3935 136.263 21.4787C135.979 21.5639 135.659 21.6385 135.304 21.7024C134.949 21.7663 134.597 21.8232 134.249 21.8729C133.901 21.9226 133.6 21.9652 133.344 22.0007C132.769 22.0788 132.254 22.2067 131.799 22.3842C131.345 22.5618 130.986 22.8104 130.723 23.13C130.46 23.4425 130.329 23.8473 130.329 24.3445C130.329 25.0547 130.588 25.5909 131.107 25.9531C131.625 26.3153 132.286 26.4964 133.088 26.4964ZM148.461 19.4119V29H144.605V12.6364H148.291V15.4169H148.482C148.859 14.5007 149.459 13.7727 150.283 13.233C151.114 12.6932 152.14 12.4233 153.362 12.4233C154.491 12.4233 155.475 12.6648 156.313 13.1477C157.158 13.6307 157.811 14.3303 158.273 15.2464C158.742 16.1626 158.972 17.2741 158.965 18.581V29H155.109V19.1776C155.109 18.0838 154.825 17.228 154.257 16.6101C153.695 15.9922 152.918 15.6832 151.923 15.6832C151.249 15.6832 150.649 15.8324 150.123 16.1307C149.605 16.4219 149.196 16.8445 148.898 17.3984C148.607 17.9524 148.461 18.6236 148.461 19.4119ZM170.024 29.3196C168.39 29.3196 166.987 28.9609 165.816 28.2436C164.651 27.5263 163.752 26.5355 163.12 25.2713C162.495 24 162.183 22.5369 162.183 20.8821C162.183 19.2202 162.502 17.7536 163.142 16.4822C163.781 15.2038 164.683 14.2095 165.847 13.4993C167.019 12.782 168.404 12.4233 170.002 12.4233C171.33 12.4233 172.506 12.6683 173.529 13.1584C174.558 13.6413 175.379 14.3267 175.99 15.2145C176.6 16.0952 176.948 17.125 177.034 18.304H173.347C173.198 17.5156 172.843 16.8587 172.282 16.3331C171.728 15.8004 170.986 15.5341 170.056 15.5341C169.267 15.5341 168.575 15.7472 167.978 16.1733C167.382 16.5923 166.916 17.196 166.583 17.9844C166.256 18.7727 166.093 19.7173 166.093 20.8182C166.093 21.9332 166.256 22.892 166.583 23.6946C166.909 24.4901 167.367 25.1044 167.957 25.5376C168.553 25.9638 169.253 26.1768 170.056 26.1768C170.624 26.1768 171.132 26.0703 171.579 25.8572C172.034 25.6371 172.414 25.321 172.719 24.9091C173.024 24.4972 173.234 23.9964 173.347 23.407H177.034C176.941 24.5646 176.6 25.5909 176.011 26.4858C175.421 27.3736 174.619 28.0696 173.603 28.5739C172.588 29.071 171.394 29.3196 170.024 29.3196ZM187.445 29.3196C185.804 29.3196 184.387 28.9787 183.194 28.2969C182.008 27.608 181.095 26.6349 180.456 25.3778C179.817 24.1136 179.497 22.6257 179.497 20.9141C179.497 19.2308 179.817 17.7536 180.456 16.4822C181.102 15.2038 182.004 14.2095 183.162 13.4993C184.32 12.782 185.68 12.4233 187.242 12.4233C188.251 12.4233 189.202 12.5866 190.097 12.9134C190.999 13.233 191.795 13.7301 192.484 14.4048C193.18 15.0795 193.727 15.9389 194.124 16.983C194.522 18.0199 194.721 19.2557 194.721 20.6903V21.8729H181.308V19.2734H191.024C191.017 18.5348 190.857 17.8778 190.545 17.3026C190.232 16.7202 189.795 16.2621 189.234 15.9283C188.68 15.5945 188.034 15.4276 187.295 15.4276C186.507 15.4276 185.815 15.6193 185.218 16.0028C184.621 16.3793 184.156 16.8764 183.822 17.4943C183.496 18.1051 183.329 18.7763 183.322 19.5078V21.777C183.322 22.7287 183.496 23.5455 183.844 24.2273C184.192 24.902 184.678 25.4205 185.303 25.7827C185.928 26.1378 186.66 26.3153 187.498 26.3153C188.059 26.3153 188.567 26.2372 189.021 26.081C189.476 25.9176 189.87 25.6797 190.204 25.3672C190.538 25.0547 190.79 24.6676 190.96 24.206L194.561 24.6108C194.334 25.5625 193.901 26.3935 193.261 27.1037C192.629 27.8068 191.82 28.3537 190.832 28.7443C189.845 29.1278 188.716 29.3196 187.445 29.3196ZM197.983 29V12.6364H201.723V15.3636H201.893C202.192 14.419 202.703 13.6911 203.427 13.1797C204.159 12.6612 204.993 12.402 205.931 12.402C206.144 12.402 206.382 12.4126 206.645 12.4339C206.915 12.4482 207.138 12.473 207.316 12.5085V16.0561C207.153 15.9993 206.893 15.9496 206.538 15.907C206.19 15.8572 205.853 15.8324 205.526 15.8324C204.823 15.8324 204.191 15.9851 203.63 16.2905C203.076 16.5888 202.639 17.0043 202.319 17.5369C202 18.0696 201.84 18.6839 201.84 19.38V29H197.983Z" fill="#D9D9D9"/>
</svg>
