<svg width="64" height="64" viewBox="0 0 64 64" fill="none" xmlns="http://www.w3.org/2000/svg">
<rect width="64" height="64" rx="8" fill="#1E293B"/>
<path d="M31.2288 17.0811L30.4241 23.5188L26.6566 20.7389L28.9976 25.0184L24.9376 24.5064L28.406 26.6872L25.0374 25.9055L24.8976 26.4322L22.6844 34.765L22.6826 34.7736C22.4044 35.9717 22.6969 37.0593 23.3143 37.8539C23.8156 38.4989 24.5106 38.9616 25.2743 39.2335L23.964 44.8792C23.2937 44.7347 22.7431 44.6432 22.3086 44.6392C21.6039 44.6329 21.1993 44.8546 21.0625 45.4442L27.4159 46.9186C27.6371 45.9656 26.804 45.5674 25.0599 45.1336L26.3701 39.4877C27.1754 39.5799 28.0032 39.4706 28.7372 39.1122C29.6416 38.6708 30.3832 37.8232 30.6612 36.6252L30.6632 36.6165L32.1175 29.31L33.2751 34.9341L33.2772 34.9427C33.563 36.1389 34.3102 36.9817 35.2174 37.4173C35.9537 37.7708 36.7821 37.8747 37.5869 37.7773L38.9339 43.4145C37.1927 43.8596 36.3622 44.2632 36.5896 45.2147L42.9332 43.6989C42.7925 43.1102 42.3865 42.8912 41.6818 42.9022C41.2474 42.9089 40.6974 43.0041 40.0281 43.1529L38.681 37.5158C39.4429 37.2389 40.1348 36.7717 40.6318 36.1235C41.2441 35.3249 41.5294 34.2354 41.2436 33.0391L41.2415 33.0304L38.8307 24.1866L36.3866 24.7707L39.4953 22.7141L34.9598 23.9576L36.9349 18.7271L33.0943 23.2261L31.2288 17.0811ZM38.0322 25.5341L38.9969 29.0734L33.0947 28.478L32.7486 26.7965L38.0322 25.5341ZM25.8449 27.2477L31.1366 28.4757L30.9881 29.2212L25.1523 29.8556L25.8449 27.2477ZM33.3324 29.6324L34.3502 29.7351C34.5706 31.0654 35.1881 34.4514 35.8786 35.1011C36.5601 35.7423 38.6811 35.2633 38.6811 35.2633C36.3768 35.4427 35.0619 31.8944 34.4244 29.7426L39.3137 30.2358L40.1501 33.3038C40.3632 34.1991 40.1647 34.8838 39.7391 35.4391C39.3129 35.995 38.6279 36.405 37.8799 36.5837C37.132 36.7625 36.3356 36.7065 35.7042 36.4033C35.0737 36.1006 34.5872 35.5797 34.3724 34.6853L33.3324 29.6324ZM30.758 30.3778L29.5644 36.3745C29.3554 37.2704 28.8723 37.7946 28.2437 38.1014C27.6142 38.4087 26.8184 38.47 26.0693 38.2961C25.3202 38.1223 24.6325 37.7167 24.2027 37.1637C23.7735 36.6113 23.5706 35.928 23.7777 35.0315L24.8429 31.0207L26.0571 30.8888C25.5604 32.3257 24.6392 35.1999 24.9079 36.0331C25.1951 36.9237 27.2837 37.5283 27.2837 37.5283C25.0809 36.2396 25.6436 32.9777 26.1482 30.8789L30.758 30.3778Z" fill="#F43F5E"/>
</svg>
