<svg width="64" height="64" viewBox="0 0 64 64" fill="none" xmlns="http://www.w3.org/2000/svg">
<rect width="64" height="64" rx="8" fill="#1E293B"/>
<path d="M31.9116 17.2535C28.1851 17.2535 25.7149 18.9051 24.086 21.3639C22.5183 23.7303 21.7902 26.8727 21.7371 29.9105C23.9288 30.9887 25.2367 32.1166 25.8051 33.3115C26.3069 34.3667 26.1159 35.4622 25.4899 36.309C26.8662 37.5572 29.2097 38.331 31.6234 38.3698C34.0521 38.4088 36.4952 37.7198 38.0572 36.2964C37.7426 35.9232 37.5089 35.5239 37.3959 35.0858C37.2371 34.471 37.3436 33.8055 37.6888 33.2024C38.3459 32.0543 39.7692 31.0272 42.0859 29.908C42.0311 27.0312 41.3187 23.893 39.7594 21.4884C38.1353 18.9842 35.6644 17.2535 31.9116 17.2535ZM27.1774 25.1274C30.0642 25.8067 33.1136 25.7963 36.2869 25.1402C34.6702 27.4895 28.542 27.4914 27.1774 25.1274ZM25.9079 25.973C26.389 27.8724 27.8222 28.958 30.4914 28.847L30.4219 30.9464C27.96 32.2042 25.8822 31.0707 23.94 29.7559H23.9399C23.6369 27.8454 23.9271 26.3367 25.9079 25.973ZM37.576 25.973C39.5566 26.3367 39.8468 27.8454 39.5439 29.7558H39.5437C37.6015 31.0708 35.5238 32.2042 33.0619 30.9462L32.9925 28.8469C35.6617 28.9579 37.0948 27.8722 37.5759 25.9729L37.576 25.973ZM31.6869 31.7619C32.4433 33.1255 33.0434 34.489 33.3412 35.8525C32.5277 36.4587 31.0713 36.5467 30.0326 35.8525C30.4353 34.489 30.9195 33.1255 31.687 31.7619H31.6869ZM22.2766 38.0693C19.1421 38.921 17.1172 40.1826 17.1172 41.582C17.1172 44.1457 23.7749 46.229 31.9733 46.229C40.1716 46.229 46.8294 44.1457 46.8294 41.5822C46.8294 40.1877 44.8219 38.9209 41.7066 38.0694C42.7834 38.6244 43.4264 39.2725 43.4264 39.9721C43.4264 41.9802 38.2821 43.6312 31.9735 43.6312C25.6649 43.6312 20.5571 41.9801 20.5571 39.9722C20.5571 39.2689 21.1891 38.6263 22.277 38.0695H22.2767L22.2766 38.0693ZM26.1853 38.2341L25.2539 39.6972C25.6679 40.0292 26.1494 40.3209 26.6823 40.5694L27.3634 38.7697C26.9522 38.6147 26.5579 38.4362 26.1854 38.234L26.1853 38.2341ZM37.2856 38.2672C36.9249 38.4635 36.5479 38.6356 36.1582 38.7847L36.8272 40.5645C37.3275 40.3395 37.8029 40.076 38.2438 39.7723L37.2857 38.2673L37.2856 38.2672ZM28.4791 39.1218L27.77 40.9953C28.3653 41.1886 29.0011 41.3367 29.6608 41.4368L29.9027 39.4047C29.4181 39.3366 28.9416 39.2423 28.4791 39.1218ZM35.0441 39.1397C34.5773 39.2616 34.0995 39.3544 33.6159 39.4197L33.8549 41.4276C34.497 41.3273 35.1289 41.1797 35.7369 40.9832L35.044 39.1397H35.0441ZM31.0657 39.5175L30.8224 41.562C31.4393 41.6019 32.0674 41.601 32.6941 41.5577L32.452 39.5242C32.1695 39.5371 31.8867 39.5422 31.6046 39.5377C31.4248 39.5347 31.2451 39.5272 31.0659 39.5175L31.0657 39.5175Z" fill="#F43F5E"/>
</svg>
