<svg width="64" height="64" viewBox="0 0 64 64" fill="none" xmlns="http://www.w3.org/2000/svg">
<rect width="64" height="64" rx="8" fill="#1E293B"/>
<path d="M27.4519 17.2568C26.2282 21.3383 24.8493 25.3643 25.5543 28.8898L25.5763 29.0001L24.5744 34.0094L25.5348 39.7713L30.6383 46.5226L31.3902 41.3064L30.0027 42.0001C29.0027 40.0001 29.0027 38.0001 30.0027 37.0001L27.0027 36.0001V32.0001C27.6523 32.6498 29.1458 33.721 30.3868 34.3922L29.4141 30.9873L29.4572 30.8578L27.4878 30.2952L27.4519 17.2569L27.4519 17.2568ZM36.5652 17.4258V30.2816L34.5483 30.8579L34.5913 30.9873L33.6186 34.3923C34.8596 33.721 36.3531 32.6497 37.0027 32.0001V36.0001L34.0027 37.0001C35.0027 38.0001 35.0027 40.0001 34.0027 42.0001L32.6146 41.3061L33.3676 46.5761L38.4703 39.7724L39.4309 34.0094L38.4291 29.0001L38.4511 28.8898C39.1451 25.4196 37.7649 21.4518 36.5652 17.4258ZM32.0027 20.5351L31.5652 24.0351V28.0914L30.5913 31.013L32.0027 35.9525L33.4141 31.013L32.4402 28.0914V24.0351L32.0027 20.5351ZM33.5652 27.4658V27.9089L34.1921 29.7895L35.4402 29.433V28.3504C34.6723 27.9682 34.0671 27.6753 33.5652 27.4658V27.4658ZM30.4402 27.4661C29.9472 27.6717 29.3552 27.9577 28.6074 28.3295L28.6106 29.446L29.8133 29.7896L30.4402 27.9089V27.4661ZM28.0027 34.0001V35.0001L30.0027 36.0001L28.0027 34.0001ZM36.0027 34.0001L34.0027 36.0001L36.0027 35.0001V34.0001ZM17.6258 39.2695C17.3208 40.7353 17.1656 42.2211 17.3758 43.824C18.0573 43.4854 18.7687 43.264 19.4988 43.1423C18.7214 42.063 18.0991 40.721 17.6257 39.2695L17.6258 39.2695ZM46.3764 39.2695C45.903 40.721 45.2807 42.063 44.5033 43.1423C45.2333 43.264 45.9448 43.4855 46.6264 43.824C46.8364 42.2211 46.6813 40.7353 46.3764 39.2695V39.2695ZM21.6258 39.8841C21.4349 40.8017 21.3025 41.7271 21.2814 42.6841C21.625 42.4176 21.9884 42.1338 22.4152 41.8895C22.1172 41.2576 21.8539 40.5839 21.6258 39.8841ZM42.3764 39.8841C42.1481 40.5838 41.8849 41.2576 41.5869 41.8895C42.0137 42.1339 42.3771 42.4176 42.7206 42.6841C42.6996 41.7271 42.5673 40.8017 42.3764 39.8841H42.3764ZM24.2283 42.4875C23.7524 42.4962 23.3791 42.6376 23.0023 42.8495C22.6795 43.031 22.3551 43.2789 22.0167 43.5391L28.6484 47.4885L24.7058 42.5306C24.5753 42.5121 24.4416 42.4896 24.3249 42.4875C24.2923 42.4869 24.2601 42.4869 24.2284 42.4875L24.2283 42.4875ZM39.6773 42.4875C39.5606 42.4896 39.4268 42.5121 39.2963 42.5306L35.3535 47.4887L41.9855 43.5391C41.6471 43.2789 41.3226 43.031 40.9998 42.8495C40.5979 42.6235 40.2 42.4776 39.6773 42.4875ZM20.8523 44.1556C19.5208 44.165 18.3032 44.4868 17.1719 45.246L17.4569 46.4701L25.7423 47.0922L21.9302 44.803L21.9374 44.8011L21.3798 44.4691L21.3803 44.4728L20.8523 44.1556V44.1556ZM43.15 44.1556L42.6219 44.4729L42.6223 44.4691L42.0647 44.8011L42.072 44.803L38.2597 47.0924L46.5453 46.4701L46.8301 45.246C45.6989 44.4868 44.4814 44.1649 43.1499 44.1556L43.15 44.1556Z" fill="#F43F5E"/>
</svg>
