<svg width="64" height="64" viewBox="0 0 64 64" fill="none" xmlns="http://www.w3.org/2000/svg">
<rect width="64" height="64" rx="8" fill="#1E293B"/>
<path d="M31.2655 17.373C37.7469 23.4487 42.76 29.517 46.9236 35.0037V27.9784C46.4822 27.579 46.0389 27.1861 45.5896 26.8007C45.7762 26.5841 45.8904 26.3024 45.8904 25.994C45.8904 25.3111 45.337 24.7578 44.6541 24.7578C44.2612 24.7578 43.9119 24.9428 43.6853 25.2284C40.9822 23.0754 38.1674 21.1687 35.3103 19.5214C35.3732 19.3949 35.4099 19.2543 35.4099 19.1034C35.4099 18.5815 34.9866 18.1581 34.4646 18.1581C34.1261 18.1581 33.8307 18.3361 33.6638 18.6035C32.8661 18.1733 32.0659 17.7627 31.2654 17.373H31.2655ZM22.5428 18.5057C22.8622 18.8293 23.1791 19.1532 23.4941 19.4803C23.23 19.5536 23.0328 19.7484 22.9725 20.0428C22.8592 20.5955 23.2679 21.2878 23.8866 21.5878C24.1142 21.6982 24.3389 21.739 24.5369 21.7205C24.3785 21.9774 24.2869 22.2814 24.2869 22.6054C24.2869 23.536 25.0401 24.289 25.9707 24.289C26.5132 24.289 26.9963 24.0329 27.3046 23.6346C32.8475 29.9596 37.6545 36.6596 42.0019 42.8046C41.5394 43.1825 41.244 43.7565 41.244 44.4002C41.244 45.5385 42.1662 46.4609 43.3046 46.4609C43.6967 46.4609 44.0627 46.3502 44.3748 46.16C44.5677 46.4322 44.7619 46.7075 44.9529 46.9765H46.9237V39.8299C44.3389 35.5035 37.2506 27.7462 35.3904 26.498C36.8991 28.5855 38.2091 30.519 39.4412 32.3749C33.9731 26.3905 27.976 21.1507 22.5427 18.5058L22.5428 18.5057ZM20.7791 19.4589C20.6623 19.4642 20.5456 19.4931 20.4334 19.5467C19.9849 19.7613 19.7951 20.2994 20.0097 20.748C20.2242 21.1964 20.7622 21.3863 21.2108 21.1717C21.6593 20.9572 21.8492 20.4191 21.6346 19.9705C21.4737 19.6342 21.1295 19.4427 20.7791 19.4589ZM43.0134 20.7323C42.9226 20.7354 42.8348 20.7546 42.7537 20.7928C42.3214 20.9963 42.2372 21.6444 42.5662 22.24C42.8953 22.8357 43.5127 23.1545 43.9452 22.951C44.3776 22.7474 44.4617 22.0993 44.1327 21.5037C43.8653 21.0197 43.4077 20.7187 43.0135 20.7322L43.0134 20.7323ZM33.5682 22.9354C33.4442 22.9431 33.3279 22.9804 33.2284 23.0467C32.8306 23.3114 32.8429 23.9647 33.2557 24.5057C33.6687 25.0466 34.3247 25.2704 34.7226 25.0057C35.1205 24.7409 35.1081 24.0877 34.6952 23.5467C34.3856 23.1409 33.9404 22.912 33.5684 22.9354H33.5682ZM17.5781 25.3299C23.2667 31.5826 27.4966 37.2297 30.8281 42.3046C30.2981 42.2194 29.6753 42.6139 29.5625 43.1542C29.1737 45.0153 30.3685 46.5238 32.5371 46.9764H40.3906C34.2674 38.2427 25.7167 29.292 17.5781 25.3299ZM19.455 31.6952C19.2171 31.7001 19.0053 31.7785 18.8671 31.9355C18.5514 32.2941 18.7327 32.922 19.2715 33.3377C19.8102 33.7534 20.5026 33.8 20.8184 33.4412C21.1341 33.0825 20.9547 32.4546 20.416 32.0389C20.1129 31.8052 19.761 31.6889 19.4551 31.6952L19.455 31.6952ZM22.4042 34.078C21.4736 34.078 20.7207 34.831 20.7207 35.7617C20.7207 36.6923 21.4736 37.4472 22.4042 37.4472C23.3348 37.4472 24.0898 36.6922 24.0898 35.7615C24.0898 34.831 23.3349 34.078 22.4042 34.078ZM27.3867 40.5449C26.7037 40.5449 26.1504 41.0982 26.1504 41.7812C26.1504 42.4641 26.7037 43.0174 27.3866 43.0174C28.0696 43.0174 28.623 42.4641 28.623 41.7812C28.623 41.0982 28.0696 40.5449 27.3867 40.5449Z" fill="#F43F5E"/>
</svg>
