<svg width="64" height="64" viewBox="0 0 64 64" fill="none" xmlns="http://www.w3.org/2000/svg">
<rect width="64" height="64" rx="8" fill="#1E293B"/>
<path d="M32 17.4375C30.9952 17.4375 29.9766 17.6706 28.9889 18.0775C28.856 18.4853 28.7466 19 28.6841 19.5621C28.6022 20.299 28.5759 21.1063 28.5672 21.8633C30.6837 21.6318 33.3163 21.6318 35.4328 21.8633C35.4241 21.1063 35.3978 20.2989 35.3159 19.5621C35.2534 19.0001 35.1441 18.4853 35.0111 18.0775C34.0234 17.6706 33.0048 17.4375 32 17.4375ZM38.2852 18.6458C38.8674 19.0866 39.4169 19.5756 39.9279 20.0979C40.0235 19.6823 40.221 19.3044 40.4923 18.9919L38.2852 18.6458ZM27.6584 18.7389C25.4912 20.0026 23.5929 22.0335 22.4989 24.1348C20.4314 28.1058 20.0183 33.9445 22.4658 37.5597C24.2991 40.2674 28.5173 41.3125 32 41.3125C35.4828 41.3125 39.7009 40.2675 41.5342 37.5597C43.9818 33.9445 43.5686 28.1057 41.5011 24.1347C40.4071 22.0334 38.5088 20.0027 36.3417 18.7389C36.3778 18.967 36.4078 19.2006 36.4341 19.4379C36.5292 20.2938 36.5536 21.2002 36.5599 22.0171C37.729 22.2142 38.625 22.5 39 22.875C41 24.875 43.7211 31.2934 40 36.875C37.6466 40.405 26.3534 40.405 24 36.875C20.2789 31.2934 23 24.875 25 22.875C25.375 22.5 26.2709 22.2142 27.44 22.0171C27.4464 21.2002 27.4708 20.2938 27.5659 19.4379C27.5922 19.2006 27.6222 18.967 27.6584 18.7389ZM20 19C19.4477 19 19 19.4477 19 20C19 20.163 19.0399 20.3236 19.1161 20.4676C19.1924 20.6117 19.3027 20.735 19.4375 20.8267V25.0938L20.5625 24.25V20.8256C20.6971 20.734 20.8074 20.6109 20.8836 20.4671C20.9599 20.3232 20.9998 20.1628 21 20C21 19.4477 20.5523 19 20 19ZM42.4256 19.23C41.625 19.23 40.9881 19.8669 40.9881 20.6675C40.9881 21.4681 41.625 22.105 42.4256 22.105C43.2262 22.105 43.8631 21.4681 43.8631 20.6675C43.8631 19.8669 43.2262 19.23 42.4256 19.23ZM44.0051 22.6803C43.5689 23.0239 43.0203 23.23 42.4258 23.23C42.3792 23.23 42.3332 23.2283 42.2874 23.2258C42.338 23.3163 42.3876 23.4073 42.4361 23.4989L44.3019 24.8983L44.0051 22.6803ZM29.0787 22.8366C28.0002 22.8422 26.7502 23.0714 25.7517 23.8441C24.0871 25.1321 23.0621 31.0168 23.6586 33.0168C24.6951 29.1563 25.6581 25.2655 30.4036 22.9371C29.9653 22.8684 29.5223 22.8348 29.0787 22.8366ZM20.6378 25.5997L18.5094 27.1961L17.6044 31.7216L19.9906 34.585C19.3064 31.6773 19.6296 28.4148 20.6378 25.5997ZM43.3622 25.5997C44.3703 28.4148 44.6936 31.6773 44.0094 34.5849L46.3956 31.7215L45.4906 27.196L43.3622 25.5997ZM22.6653 39.4956C22.4414 39.5687 22.2121 39.7085 22.0227 39.8978C21.7642 40.1563 21.6052 40.4872 21.5749 40.7793C21.5881 40.8021 21.6126 40.8516 21.6831 40.9144C21.8364 41.0512 22.1014 41.2376 22.441 41.4368C23.1202 41.8356 24.1004 42.2966 25.2038 42.7257C26.5274 43.2406 28.0382 43.7073 29.4374 43.9995V42.2739C26.9706 41.9539 24.4439 41.1286 22.6653 39.4956ZM41.3347 39.4956C39.5561 41.1284 37.0294 41.9538 34.5625 42.2738V43.9994C35.9617 43.7071 37.4725 43.2404 38.7961 42.7256C39.8996 42.2966 40.8797 41.8354 41.5589 41.4368C41.8986 41.2374 42.1636 41.0511 42.3169 40.9142C42.3873 40.8515 42.4119 40.8019 42.425 40.7792C42.3949 40.4871 42.2358 40.1561 41.9773 39.8977C41.7879 39.7083 41.5586 39.5687 41.3347 39.4955V39.4956ZM20.8326 41.6626L17.125 44.1344V46.875H19.4375V45.75H20.5625V46.875H43.4375V45.75H44.5625V46.875H46.875V44.1344L43.1674 41.6626C43.1338 41.6931 43.0999 41.7232 43.0659 41.7537C42.8208 41.9722 42.5077 42.1843 42.1286 42.4069C41.3703 42.8519 40.3504 43.3284 39.2039 43.7743C36.9107 44.666 34.1406 45.4375 32 45.4375C29.8594 45.4375 27.0893 44.6661 24.7961 43.7744C23.6496 43.3284 22.6298 42.8521 21.8714 42.407C21.4923 42.1845 21.1792 41.9723 20.9341 41.7537C20.9001 41.7232 20.8662 41.6931 20.8326 41.6626ZM30.5625 42.3865V44.1985C31.0773 44.2711 31.5633 44.3125 32 44.3125C32.4367 44.3125 32.9227 44.2711 33.4375 44.1985V42.3865C32.9487 42.4212 32.4673 42.4375 32 42.4375C31.5327 42.4375 31.0513 42.4212 30.5625 42.3865Z" fill="#F43F5E"/>
</svg>
